<?xml version="1.0" standalone="no"?>
<!DOCTYPE svg PUBLIC "-//W3C//DTD SVG 20010904//EN"
 "http://www.w3.org/TR/2001/REC-SVG-20010904/DTD/svg10.dtd">
<svg version="1.0" xmlns="http://www.w3.org/2000/svg"
 width="300.000000pt" height="300.000000pt" viewBox="0 0 300.000000 300.000000"
 preserveAspectRatio="xMidYMid meet">
<metadata>
Created by potrace 1.10, written by Peter Selinger 2001-2011
</metadata>
<g transform="translate(0.000000,300.000000) scale(0.100000,-0.100000)"
fill="#000000" stroke="none">
<path d="M2144 2508 c-15 -24 -42 -66 -60 -95 l-33 -52 -113 45 c-141 56 -190
63 -249 37 -60 -27 -116 -87 -206 -220 -43 -63 -86 -116 -97 -119 -48 -15 -88
-58 -130 -142 -47 -93 -45 -94 -66 10 -6 31 -17 62 -25 68 -19 16 -741 -135
-768 -160 -18 -16 -17 -24 23 -216 51 -240 52 -244 84 -244 22 0 474 92 519
106 13 4 -7 -45 -75 -183 -51 -103 -93 -189 -93 -190 0 -1 -18 3 -40 9 -87 23
-160 -44 -152 -137 7 -67 24 -101 62 -125 44 -27 94 -25 140 5 l37 26 161 -63
c89 -34 164 -63 166 -65 2 -2 -4 -18 -14 -36 -29 -55 -20 -67 102 -128 124
-63 284 -117 443 -151 90 -19 137 -22 325 -23 242 0 310 7 324 34 7 11 2 70
-15 176 -14 87 -23 162 -22 167 2 6 34 22 72 36 101 39 104 48 55 157 l-39 90
25 18 c14 10 25 26 25 35 -1 22 -221 382 -242 395 -11 8 -40 -2 -114 -40 -90
-46 -268 -113 -300 -113 -8 0 18 50 58 113 98 155 101 164 93 267 -7 86 -24
130 -50 130 -18 0 -65 21 -65 29 0 4 16 32 35 62 l35 56 177 -68 c98 -38 190
-69 205 -69 14 0 40 11 56 25 41 34 122 162 184 291 44 90 49 107 37 119 -12
12 -424 175 -442 175 -4 0 -19 -19 -33 -42z m429 -121 c20 -9 37 -23 37 -32 0
-20 -91 -201 -142 -281 -44 -71 -99 -124 -128 -124 -20 0 -60 44 -60 67 0 11
5 13 18 8 25 -11 68 -19 61 -11 -3 3 -23 12 -45 19 -43 15 -51 33 -53 110 -1
55 -6 55 101 12 32 -13 60 -20 63 -15 2 4 -35 22 -84 40 -84 30 -89 34 -95 65
-8 41 -14 45 -103 80 -40 16 -73 32 -73 36 0 5 25 46 54 93 l55 84 178 -68
c98 -37 195 -75 216 -83z m-593 -9 c172 -66 216 -88 176 -88 -28 0 -107 -73
-170 -157 -36 -49 -98 -150 -137 -225 -38 -76 -72 -138 -74 -138 -1 0 -95 35
-207 78 -111 43 -211 82 -221 85 -17 6 -15 14 23 85 64 119 185 296 243 355
51 52 94 74 150 76 15 1 113 -32 217 -71z m245 -112 c9 -14 19 -63 24 -122 5
-55 16 -117 25 -138 9 -21 16 -40 16 -41 0 -2 -311 116 -319 121 -6 5 66 98
106 135 42 40 89 68 115 69 10 0 25 -11 33 -24z m-835 -182 c0 -3 -16 -35 -36
-70 -25 -46 -41 -64 -51 -60 -8 3 -19 6 -24 6 -16 0 29 76 61 104 30 25 50 33
50 20z m-205 -143 c9 -42 28 -125 41 -186 27 -123 34 -148 39 -143 2 2 -4 40
-14 85 -17 78 -17 83 1 116 10 20 22 38 27 41 9 6 418 -140 434 -154 7 -6
-108 -230 -117 -230 -7 0 -302 112 -318 121 -13 7 -23 6 -34 -6 -8 -8 -24 -15
-35 -15 -21 0 -263 -48 -509 -100 -201 -43 -194 -42 -208 -32 -13 9 -92 361
-92 412 0 34 -12 29 185 70 83 17 240 50 350 74 142 30 205 40 216 33 10 -6
24 -41 34 -86z m202 -34 c59 -24 178 -70 263 -102 85 -32 157 -59 158 -61 2
-1 -91 -166 -206 -366 -115 -200 -230 -399 -256 -444 -28 -49 -46 -93 -46
-112 0 -36 1 -36 -106 13 -30 14 -56 25 -58 25 -2 0 -21 8 -42 17 -22 9 -46
18 -55 19 -9 2 -37 13 -63 24 -26 11 -54 20 -63 20 -43 0 -93 54 -93 100 0 11
53 126 117 255 l117 234 65 15 64 15 188 -71 c104 -39 194 -68 201 -65 7 2 46
62 86 133 51 90 71 133 65 143 -9 13 -414 171 -440 171 -7 0 -21 -17 -32 -37
l-19 -38 -7 28 c-6 21 -1 43 15 78 13 27 27 49 31 49 4 0 56 -20 116 -43z
m516 27 c12 -4 5 -22 -31 -86 -42 -74 -65 -99 -79 -85 -5 6 84 177 92 177 2 0
10 -3 18 -6z m62 -34 c13 -14 19 -42 23 -109 5 -99 2 -106 -105 -273 -24 -36
-43 -69 -43 -72 0 -3 -32 -56 -71 -118 -40 -62 -95 -150 -123 -195 -204 -327
-207 -331 -240 -347 -43 -20 -60 -20 -80 0 -19 19 -20 51 -3 84 34 63 572 998
589 1023 23 32 29 33 53 7z m301 -338 c6 -4 62 -91 124 -194 111 -184 113
-188 95 -208 -10 -11 -21 -20 -25 -20 -3 0 -28 49 -54 110 -30 68 -54 111 -66
115 -10 3 -42 -4 -71 -16 -66 -27 -217 -69 -244 -69 -12 0 -38 9 -60 20 -67
34 -155 21 -200 -30 l-20 -23 130 6 c140 7 240 27 375 76 67 25 87 29 96 19
17 -19 174 -385 174 -407 0 -18 -15 -26 -147 -78 -9 -3 -13 4 -13 21 0 21 5
26 24 26 25 0 66 41 66 66 0 46 -79 59 -120 19 -23 -22 -37 -25 -141 -31
l-114 -7 3 44 c6 76 -58 147 -142 156 -87 10 -178 -46 -193 -119 -4 -22 -10
-27 -22 -23 -9 4 -37 14 -63 22 l-47 16 48 76 c26 42 77 122 112 179 44 69 70
102 82 102 39 0 236 73 312 115 89 49 86 48 101 37z m-351 -263 c4 -6 13 -8
21 -5 19 7 13 -17 -6 -26 -8 -4 -41 -7 -72 -7 -45 -1 -58 2 -58 14 0 8 3 15 8
16 22 2 56 10 61 14 8 9 40 5 46 -6z m-1075 -160 c0 -20 -21 -49 -36 -49 -8 0
-22 -16 -30 -35 -9 -22 -21 -35 -32 -34 -14 0 -14 2 3 9 17 7 17 9 3 9 -10 1
-18 7 -18 14 0 6 -5 4 -11 -7 -9 -14 -8 -20 2 -27 22 -14 49 -11 55 6 9 23 34
18 34 -6 0 -12 15 -36 34 -55 32 -32 32 -34 15 -50 -31 -28 -89 -29 -129 -2
-19 13 -35 30 -36 38 0 8 -6 29 -13 45 -19 44 -7 95 29 128 24 22 40 27 80 27
29 0 50 -5 50 -11z m1172 -30 c35 -28 43 -40 39 -61 0 -5 4 -8 10 -8 6 0 9
-16 7 -37 l-3 -38 -65 3 c-65 3 -142 15 -212 33 -40 10 -48 28 -23 49 9 7 13
15 11 18 -8 7 75 70 99 76 43 9 99 -5 137 -35z m-287 -103 c149 -45 269 -59
448 -53 155 5 158 5 166 -16 17 -47 65 -427 56 -436 -15 -15 -167 -31 -297
-31 -213 0 -437 41 -627 114 -102 39 -247 111 -256 127 -4 6 1 28 10 49 l18
39 51 -20 c106 -40 130 -26 231 136 56 89 84 125 95 122 8 -3 56 -17 105 -31z
m689 -19 c13 -20 -7 -67 -29 -67 -8 0 -22 11 -30 24 -14 20 -14 28 -3 45 14
23 47 22 62 -2z"/>
<path d="M2171 2414 c-23 -36 -41 -66 -41 -67 0 -2 8 -3 18 -4 11 -1 30 19 52
55 45 72 43 69 26 75 -10 4 -27 -15 -55 -59z"/>
<path d="M2242 2388 c-22 -35 -37 -67 -34 -72 6 -11 37 26 69 83 38 66 8 56
-35 -11z"/>
<path d="M2286 2370 c-21 -33 -34 -65 -31 -70 6 -10 85 101 85 120 0 24 -20 5
-54 -50z"/>
<path d="M2327 2355 c-21 -30 -37 -60 -37 -67 0 -7 18 16 41 51 49 78 46 92
-4 16z"/>
<path d="M2347 2339 c-21 -34 -36 -63 -34 -66 3 -2 15 12 27 32 12 20 25 34
28 30 3 -3 -5 -19 -17 -36 -13 -17 -20 -33 -17 -36 3 -4 7 -4 9 -2 39 57 77
122 77 131 0 7 -10 -2 -21 -20 -12 -18 -24 -31 -27 -28 -2 3 3 17 12 31 9 14
13 25 9 25 -5 0 -25 -27 -46 -61z"/>
<path d="M2437 2318 c-18 -29 -37 -59 -41 -65 -4 -8 -2 -13 7 -13 12 0 87 107
87 124 0 20 -24 -1 -53 -46z"/>
<path d="M2476 2291 c-20 -32 -36 -61 -36 -65 0 -17 20 -2 42 32 63 96 61 92
45 92 -9 0 -32 -26 -51 -59z"/>
<path d="M1730 2421 c0 -5 44 -24 98 -44 53 -19 134 -49 180 -66 45 -17 82
-27 82 -22 0 7 -37 22 -277 110 -46 17 -83 27 -83 22z"/>
<path d="M1640 2353 c0 -11 350 -137 357 -129 3 3 0 8 -8 11 -8 2 -87 32 -177
65 -177 65 -172 64 -172 53z"/>
<path d="M1551 2230 c21 -12 341 -130 353 -130 27 0 -23 22 -176 78 -155 57
-217 75 -177 52z"/>
<path d="M1460 2103 c0 -4 60 -30 133 -57 72 -27 153 -57 180 -67 26 -11 47
-15 47 -10 0 4 -73 35 -162 69 -90 33 -171 63 -180 67 -10 4 -18 3 -18 -2z"/>
<path d="M1385 1962 c6 -6 53 -27 105 -46 52 -19 132 -48 178 -65 45 -17 82
-27 82 -23 0 4 -78 36 -172 71 -212 79 -206 77 -193 63z"/>
<path d="M1021 1951 c15 -20 20 -39 17 -60 -5 -33 6 -42 16 -15 12 30 6 64
-14 84 -30 30 -44 24 -19 -9z"/>
<path d="M990 1929 c5 -16 7 -36 4 -44 -3 -7 -1 -16 4 -19 18 -11 24 45 7 70
-21 32 -25 30 -15 -7z"/>
<path d="M527 1865 c-73 -16 -89 -30 -81 -73 9 -47 31 -55 103 -38 33 8 65 17
71 21 22 13 -5 108 -29 104 -3 -1 -32 -7 -64 -14z m87 -37 c8 -41 1 -47 -72
-63 -70 -14 -82 -8 -82 41 0 30 3 34 43 42 23 6 56 10 73 11 28 1 32 -3 38
-31z"/>
<path d="M1045 1698 c-49 -11 -95 -25 -102 -31 -12 -12 -4 -80 11 -95 6 -5
222 35 239 45 11 6 9 61 -3 84 -13 23 -28 23 -145 -3z m139 -10 c16 -60 12
-63 -86 -82 -51 -10 -103 -21 -115 -23 -18 -4 -23 0 -28 28 -3 19 -6 38 -6 44
0 8 164 50 212 54 9 0 19 -9 23 -21z"/>
<path d="M1343 1705 c-7 -21 3 -95 15 -107 6 -6 7 6 1 34 -12 63 -11 78 6 78
11 0 15 -11 15 -40 0 -22 4 -40 9 -40 4 0 47 18 95 40 48 22 93 37 99 34 9 -5
9 -4 0 6 -9 10 -25 7 -82 -15 -39 -14 -75 -24 -81 -20 -5 3 -10 0 -11 -7 0 -7
-7 2 -15 20 -15 34 -41 42 -51 17z"/>
<path d="M1482 1642 c-57 -26 -98 -48 -92 -50 15 -5 200 78 200 89 0 5 -1 9
-2 8 -2 -1 -50 -22 -106 -47z"/>
<path d="M1089 1504 c-24 -29 18 -66 89 -80 24 -5 32 -2 42 16 14 27 1 45 -48
66 -44 18 -66 18 -83 -2z m88 -16 c8 -6 12 -20 10 -30 -3 -10 -1 -16 4 -12 5
3 9 13 9 22 0 12 3 13 12 4 10 -10 9 -15 -3 -27 -13 -14 -20 -13 -62 1 -52 17
-62 27 -53 51 7 17 58 12 83 -9z"/>
<path d="M1241 1441 c-14 -26 4 -47 57 -66 52 -18 85 -6 80 28 -6 44 -117 75
-137 38z m74 -1 c22 -8 26 -15 23 -35 -3 -13 -1 -22 3 -19 5 3 9 13 9 22 0 12
3 13 12 4 10 -10 9 -16 -4 -28 -14 -15 -20 -14 -62 4 -33 15 -46 27 -46 41 0
24 22 27 65 11z"/>
<path d="M1041 1412 c-15 -28 11 -57 64 -72 40 -11 48 -11 62 3 23 22 9 45
-39 67 -54 25 -75 25 -87 2z m70 -8 c23 -11 30 -21 26 -35 -3 -10 -1 -19 4
-19 5 0 9 10 9 22 0 16 3 19 11 11 7 -7 9 -19 5 -28 -5 -13 -13 -15 -34 -11
-53 13 -82 29 -82 46 0 34 17 37 61 14z"/>
<path d="M1401 1396 c-26 -31 -9 -58 46 -77 58 -19 88 -9 82 27 -7 33 -109 73
-128 50z m87 -43 c4 -27 -17 -34 -56 -17 -33 13 -44 48 -19 57 22 8 72 -18 75
-40z"/>
<path d="M1190 1350 c-14 -26 15 -55 70 -70 78 -21 101 37 28 70 -55 25 -85
25 -98 0z m75 -2 c20 -9 26 -18 22 -35 -5 -29 1 -30 12 0 8 20 10 20 16 4 14
-33 -9 -41 -64 -22 -43 14 -51 21 -51 41 0 27 22 32 65 12z"/>
<path d="M1002 1328 c-16 -16 -15 -43 1 -57 25 -20 93 -39 109 -30 12 6 20 2
31 -15 19 -28 102 -55 119 -38 8 8 14 6 22 -11 15 -29 101 -65 124 -51 41 26
18 65 -49 86 -31 9 -45 9 -59 0 -15 -9 -19 -7 -23 9 -5 19 -77 58 -110 59 -10
0 -21 -8 -24 -17 -6 -15 -8 -14 -13 7 -4 17 -20 32 -50 47 -52 26 -62 27 -78
11z m87 -31 c8 -7 17 -11 20 -9 3 1 7 -6 9 -16 2 -11 -4 -22 -13 -26 -13 -5
-15 -1 -10 17 7 20 6 21 -7 4 -12 -17 -16 -17 -51 -2 -59 24 -47 75 13 53 13
-5 31 -15 39 -21z m122 -43 c23 -11 30 -21 26 -35 -3 -10 -1 -19 4 -19 5 0 9
10 9 22 0 16 3 19 11 11 7 -7 9 -19 5 -28 -5 -13 -13 -15 -34 -11 -53 13 -82
29 -82 46 0 34 17 37 61 14z m154 -56 c20 -9 26 -18 22 -35 -2 -12 0 -20 4
-17 5 3 9 13 9 22 0 12 3 13 12 4 10 -9 9 -15 -3 -27 -14 -14 -20 -14 -59 0
-47 17 -61 30 -53 52 6 16 34 17 68 1z"/>
<path d="M1346 1298 c-22 -31 -6 -51 53 -70 40 -13 54 -13 67 -4 27 20 12 49
-36 73 -57 28 -65 28 -84 1z m95 -39 l7 -24 1 25 c1 18 4 21 12 13 7 -7 9 -19
6 -27 -7 -17 -63 -14 -98 4 -21 12 -26 46 -6 53 23 8 71 -19 78 -44z"/>
<path d="M950 1225 c-19 -22 -5 -44 42 -65 52 -24 62 -24 82 -4 15 14 16 13
16 -10 0 -21 8 -28 53 -44 34 -13 58 -17 69 -11 11 6 18 4 22 -7 8 -21 92 -57
115 -49 22 7 33 29 25 49 -6 16 -74 46 -104 46 -10 0 -22 -5 -26 -12 -5 -7
-10 -4 -15 11 -11 29 -97 67 -121 52 -13 -8 -18 -6 -23 8 -6 20 -71 51 -104
51 -10 0 -24 -7 -31 -15z m87 -17 c8 -6 12 -20 10 -30 -3 -10 -1 -16 4 -12 5
3 9 13 9 22 0 15 2 15 10 2 6 -10 5 -19 -3 -28 -10 -10 -22 -9 -60 4 -52 17
-62 27 -53 51 7 17 58 12 83 -9z m151 -75 c4 -27 -16 -33 -55 -16 -34 13 -45
47 -20 56 22 8 72 -18 75 -40z m139 -35 c8 -6 12 -20 10 -30 -3 -10 -1 -16 4
-12 5 3 9 13 9 22 0 12 3 13 12 4 10 -9 9 -15 -3 -27 -13 -14 -20 -13 -62 1
-52 17 -62 27 -53 51 7 17 58 12 83 -9z"/>
<path d="M910 1135 c-21 -25 -7 -49 43 -69 39 -17 52 -18 68 -8 16 10 19 9 19
-7 0 -13 13 -24 40 -35 48 -19 72 -20 88 -4 7 7 12 8 12 2 0 -5 4 -3 9 5 15
24 85 3 89 -27 2 -12 -3 -24 -11 -27 -17 -7 -69 12 -79 28 -6 9 -8 9 -8 0 0
-14 40 -37 83 -47 33 -8 57 7 57 36 0 23 -80 62 -116 55 -14 -2 -25 1 -28 10
-9 23 -98 56 -118 44 -13 -8 -18 -7 -22 7 -4 10 -27 26 -54 35 -57 21 -57 21
-72 2z m57 -7 c35 -13 45 -44 18 -54 -23 -9 -75 16 -75 36 0 32 10 35 57 18z
m138 -52 c56 -24 43 -64 -16 -51 -32 7 -45 25 -35 50 7 18 8 18 51 1z"/>
<path d="M700 945 c0 -2 13 -11 30 -20 37 -19 78 -19 110 1 18 11 19 13 5 9
-50 -16 -76 -16 -106 -1 -35 17 -39 19 -39 11z"/>
<path d="M1734 861 c-118 -72 -103 -211 28 -265 106 -45 238 24 238 123 0 46
-39 110 -84 136 -54 32 -136 34 -182 6z m131 -1 c4 -6 10 -8 15 -5 5 3 16 -2
24 -11 9 -8 16 -13 16 -9 0 13 28 -22 34 -43 4 -12 12 -22 17 -22 5 0 9 -22 8
-49 -4 -114 -120 -158 -245 -94 -90 46 -77 185 21 228 36 16 101 19 110 5z"/>
<path d="M2250 623 c-51 -19 -66 -71 -28 -97 32 -22 62 -20 94 7 33 29 28 67
-11 85 -28 13 -32 13 -55 5z m60 -33 c20 -33 -25 -69 -69 -55 -19 6 -25 42 -9
59 14 15 68 13 78 -4z"/>
<path d="M500 922 c-19 -10 -34 -23 -32 -31 1 -7 -2 -10 -8 -6 -15 9 -32 -44
-25 -76 4 -16 21 -40 38 -55 27 -22 38 -25 80 -21 68 6 107 44 107 105 0 85
-77 126 -160 84z m103 -4 c34 -18 46 -39 47 -81 0 -50 -35 -87 -84 -87 -19 0
-40 -2 -48 -5 -7 -3 -25 6 -40 20 -23 21 -28 34 -27 68 l2 42 6 -42 c7 -43 35
-84 55 -82 6 0 5 3 -2 6 -18 7 -42 57 -42 88 0 35 50 85 85 85 14 0 36 -5 48
-12z"/>
<path d="M535 879 c-8 -23 20 -50 42 -42 8 3 13 -3 13 -18 0 -19 -2 -21 -10
-9 -7 12 -10 12 -10 1 0 -7 -6 -11 -15 -7 -8 3 -15 3 -15 0 0 -2 10 -8 23 -13
17 -6 25 -4 35 11 16 23 1 48 -30 48 -15 0 -17 3 -8 19 13 26 13 31 -4 31 -8
0 -18 -9 -21 -21z"/>
</g>
</svg>
