<svg width="449" height="449" viewBox="0 0 449 449" fill="none" xmlns="http://www.w3.org/2000/svg">
<path d="M407.817 221.982C409.212 323.217 328.263 406.425 227.005 407.823C125.788 409.216 42.5752 328.273 41.1924 227.04C39.783 125.797 120.731 42.5833 221.959 41.1872C323.21 39.7852 406.42 120.741 407.817 221.982Z" fill="url(#paint0_linear_136_3992)"/>
<path d="M267.611 253.309C267.652 279.056 223.563 276.178 209.511 276.207L209.464 230.559C223.521 230.546 267.582 226.455 267.611 253.309ZM257.894 188.917C257.915 212.342 221.145 209.65 209.44 209.664L209.394 168.264C221.099 168.249 257.864 164.485 257.894 188.917Z" fill="white"/>
<path d="M257.894 188.917C257.915 212.342 221.145 209.65 209.44 209.664L209.394 168.264C221.099 168.249 257.864 164.485 257.894 188.917Z" fill="white"/>
<path d="M267.611 253.309C267.652 279.056 223.563 276.178 209.511 276.207L209.464 230.559C223.521 230.546 267.582 226.455 267.611 253.309Z" fill="white"/>
<path fill-rule="evenodd" clip-rule="evenodd" d="M296.537 179.608C294.148 155.052 272.939 146.843 246.171 144.529L246.131 110.464L225.396 110.489L225.435 143.657C219.985 143.664 214.413 143.778 208.877 143.894L208.842 110.508L188.118 110.531L188.149 144.586C183.66 144.683 179.251 144.771 174.953 144.779L174.95 144.673L146.351 144.696L146.382 166.842C146.382 166.842 161.694 166.532 161.439 166.815C169.838 166.808 172.577 171.68 173.377 175.887L173.423 214.694L173.425 214.841L173.481 269.207C173.116 271.85 171.567 276.066 165.699 276.083C165.964 276.318 150.626 276.096 150.626 276.096L146.534 300.864L173.518 300.832C178.539 300.833 183.48 300.912 188.331 300.937L188.379 335.39L209.092 335.37L209.052 301.281C214.74 301.393 220.243 301.432 225.617 301.42L225.646 335.352L246.381 335.326L246.349 300.935C281.206 298.895 305.595 290.085 308.587 257.345C311.004 230.983 298.59 219.236 278.797 214.506C290.812 208.371 298.315 197.576 296.537 179.608ZM209.511 276.207C223.563 276.178 267.652 279.056 267.611 253.309C267.582 226.455 223.521 230.546 209.464 230.559L209.511 276.207ZM209.44 209.664C221.145 209.65 257.915 212.342 257.894 188.917C257.864 164.485 221.099 168.249 209.394 168.264L209.44 209.664Z" fill="white"/>
<path fill-rule="evenodd" clip-rule="evenodd" d="M208.862 187.887L208.847 177.126C208.84 172.116 212.895 168.048 217.906 168.041C222.916 168.034 226.984 172.09 226.991 177.1L227.006 187.861L237.766 187.845C242.776 187.838 246.843 191.894 246.851 196.905C246.858 201.915 242.802 205.982 237.792 205.99L227.032 206.005L227.048 216.766C227.055 221.776 222.999 225.843 217.988 225.851C212.978 225.858 208.911 221.802 208.903 216.792L208.888 206.031L198.126 206.046C193.116 206.053 189.048 201.997 189.041 196.987C189.034 191.977 193.09 187.909 198.1 187.902L208.862 187.887Z" fill="url(#paint1_linear_136_3992)"/>
<path fill-rule="evenodd" clip-rule="evenodd" d="M244.862 238.887L244.847 228.126C244.84 223.116 248.895 219.048 253.906 219.041C258.916 219.034 262.984 223.09 262.991 228.1L263.006 238.861L273.766 238.845C278.776 238.838 282.843 242.894 282.851 247.905C282.858 252.915 278.802 256.982 273.792 256.99L263.032 257.005L263.048 267.766C263.055 272.776 258.999 276.843 253.988 276.851C248.978 276.858 244.911 272.802 244.903 267.792L244.888 257.031L234.126 257.046C229.116 257.053 225.048 252.997 225.041 247.987C225.034 242.977 229.09 238.909 234.1 238.902L244.862 238.887Z" fill="url(#paint2_linear_136_3992)"/>
<defs>
<linearGradient id="paint0_linear_136_3992" x1="177.687" y1="47.201" x2="271.313" y2="401.803" gradientUnits="userSpaceOnUse">
<stop stop-color="#2EA7FF"/>
<stop offset="1" stop-color="#0045B1"/>
</linearGradient>
<linearGradient id="paint1_linear_136_3992" x1="217.905" y1="168.041" x2="217.987" y2="225.851" gradientUnits="userSpaceOnUse">
<stop stop-color="#2EA7FF"/>
<stop offset="1" stop-color="#0045B1"/>
</linearGradient>
<linearGradient id="paint2_linear_136_3992" x1="253.905" y1="219.041" x2="253.987" y2="276.851" gradientUnits="userSpaceOnUse">
<stop stop-color="#2EA7FF"/>
<stop offset="1" stop-color="#0045B1"/>
</linearGradient>
</defs>
</svg>
