<?xml version="1.0" standalone="no"?>
<!DOCTYPE svg PUBLIC "-//W3C//DTD SVG 20010904//EN"
 "http://www.w3.org/TR/2001/REC-SVG-20010904/DTD/svg10.dtd">
<svg version="1.0" xmlns="http://www.w3.org/2000/svg"
 width="300.000000pt" height="300.000000pt" viewBox="0 0 300.000000 300.000000"
 preserveAspectRatio="xMidYMid meet">
<metadata>
Created by potrace 1.10, written by Peter Selinger 2001-2011
</metadata>
<g transform="translate(0.000000,300.000000) scale(0.100000,-0.100000)"
fill="#000000" stroke="none">
<path d="M1502 2133 c-34 -7 -132 -102 -227 -222 -105 -133 -156 -176 -223
-192 -59 -13 -130 7 -270 78 -121 60 -140 67 -195 67 -34 0 -73 -6 -86 -13
-21 -11 -23 -18 -19 -61 7 -72 39 -114 137 -179 139 -94 172 -145 157 -244 -4
-23 -27 -107 -52 -187 -26 -80 -48 -174 -51 -210 -7 -84 4 -95 95 -95 60 0 66
2 91 33 15 17 38 67 52 109 29 93 59 133 100 133 32 0 52 -30 83 -126 21 -63
52 -94 103 -101 29 -4 44 0 63 15 24 19 25 26 24 114 -1 51 -11 142 -22 201
-52 259 -20 360 178 563 l83 85 58 -57 c36 -36 67 -79 84 -117 43 -95 36 -129
-73 -353 -51 -104 -99 -219 -108 -256 -17 -67 -17 -68 7 -115 32 -63 79 -89
121 -67 36 18 67 68 109 168 41 101 75 142 112 132 38 -9 56 -43 74 -138 35
-188 63 -246 116 -233 15 4 41 20 56 36 33 33 41 82 30 179 -4 36 -11 108 -15
161 -6 89 -5 100 18 150 32 68 92 128 188 186 103 62 157 108 191 162 51 79
33 131 -45 131 -57 0 -108 -19 -185 -69 -87 -56 -127 -65 -210 -51 -136 24
-202 73 -285 214 -89 151 -151 190 -264 169z m105 -48 c36 -15 103 -78 103
-96 0 -18 93 -155 124 -182 103 -93 281 -125 390 -71 28 14 58 32 66 39 45 41
169 71 185 45 10 -16 -22 -79 -57 -111 -18 -17 -78 -60 -133 -96 -117 -76
-169 -128 -203 -201 -31 -69 -37 -145 -19 -262 24 -153 6 -246 -46 -238 -27 4
-50 61 -72 183 -19 106 -39 144 -84 166 -75 35 -112 1 -194 -181 -42 -93 -67
-118 -102 -102 -13 6 -32 26 -41 43 -25 49 -6 117 91 314 45 94 89 186 96 205
22 57 16 147 -14 209 -27 56 -125 166 -158 176 -34 11 -78 -26 -202 -168 -69
-79 -102 -137 -121 -212 -21 -80 -20 -149 5 -280 27 -136 31 -281 9 -295 -8
-5 -21 -10 -28 -10 -26 0 -69 56 -87 113 -12 39 -29 67 -52 87 -38 34 -52 36
-93 15 -42 -22 -67 -59 -92 -138 -28 -87 -63 -127 -110 -127 -74 0 -75 41 -7
261 58 189 65 259 31 324 -28 54 -50 76 -136 134 -84 57 -121 97 -131 143 -6
25 -3 35 11 46 37 27 157 -6 264 -73 19 -12 38 -23 43 -23 4 -1 22 -9 39 -18
42 -22 142 -29 195 -15 64 17 132 78 240 214 147 185 201 219 290 182z"/>
<path d="M922 2081 c-45 -29 -72 -77 -72 -131 0 -113 113 -183 216 -134 99 47
111 192 21 256 -43 31 -122 35 -165 9z m154 -55 c28 -28 34 -42 34 -76 0 -34
-6 -48 -34 -76 -74 -74 -186 -25 -186 81 0 55 52 105 110 105 34 0 48 -6 76
-34z"/>
<path d="M2007 2082 c-87 -58 -98 -174 -22 -241 122 -107 302 24 237 172 -25
57 -73 87 -138 87 -31 0 -59 -7 -77 -18z m141 -40 c25 -16 52 -61 52 -87 0
-63 -72 -122 -134 -111 -35 7 -80 48 -91 84 -10 32 12 89 43 111 46 32 84 33
130 3z"/>
</g>
</svg>
