<?xml version="1.0" standalone="no"?>
<!DOCTYPE svg PUBLIC "-//W3C//DTD SVG 20010904//EN"
 "http://www.w3.org/TR/2001/REC-SVG-20010904/DTD/svg10.dtd">
<svg version="1.0" xmlns="http://www.w3.org/2000/svg"
 width="300.000000pt" height="200.000000pt" viewBox="0 0 300.000000 200.000000"
 preserveAspectRatio="xMidYMid meet">
<metadata>
Created by potrace 1.10, written by Peter Selinger 2001-2011
</metadata>
<g transform="translate(0.000000,200.000000) scale(0.100000,-0.100000)"
fill="#000000" stroke="none">
<path d="M1460 1713 c-70 -4 -150 -23 -150 -35 0 -6 -9 -8 -20 -5 -10 3 -20 2
-22 -2 -2 -3 -46 -28 -99 -54 -53 -26 -121 -70 -151 -97 -31 -27 -59 -46 -63
-42 -5 4 -5 1 -1 -6 5 -8 -2 -22 -18 -37 -14 -13 -26 -26 -26 -28 0 -3 -16
-30 -35 -62 -19 -32 -42 -81 -50 -109 -9 -28 -19 -58 -22 -66 -22 -60 -24
-283 -2 -345 7 -22 14 -47 15 -55 2 -20 45 -112 59 -127 7 -6 26 -34 44 -62
18 -28 37 -51 42 -51 4 0 7 -6 5 -12 -1 -7 -1 -10 1 -5 8 13 22 -3 16 -18 -3
-10 -1 -13 8 -10 8 3 23 -6 33 -20 10 -14 24 -25 30 -25 6 0 22 -10 36 -23 14
-12 41 -30 60 -39 82 -38 129 -56 134 -51 3 4 6 2 6 -3 0 -5 8 -10 18 -11 9
-1 42 -5 72 -10 83 -12 202 -7 288 13 42 10 82 18 87 19 6 0 16 6 24 13 7 7
19 11 26 8 8 -3 16 2 19 11 4 9 9 13 13 9 3 -3 15 2 26 11 10 10 21 17 23 16
18 -12 197 176 236 247 42 75 98 229 98 268 0 15 4 33 8 39 11 17 -2 143 -23
228 -10 39 -33 103 -52 142 -18 40 -34 76 -35 80 0 5 -9 14 -19 21 -11 7 -19
18 -19 23 0 18 -92 105 -132 127 -21 10 -35 21 -32 24 2 3 -10 11 -28 18 -35
13 -37 13 -133 55 -39 18 -91 30 -150 36 -49 4 -92 8 -95 7 -3 -1 -25 -3 -50
-5z m232 -42 c222 -57 397 -215 474 -426 39 -108 49 -217 31 -328 -9 -52 -28
-121 -42 -152 -14 -32 -22 -62 -18 -68 3 -6 1 -7 -5 -3 -11 7 -17 -6 -13 -27
1 -5 -2 -6 -7 -3 -8 5 -43 -46 -42 -61 0 -5 -5 -8 -11 -8 -15 0 -40 -36 -33
-47 6 -10 -47 -60 -55 -53 -2 3 8 14 23 26 15 12 25 24 22 26 -3 3 -28 -15
-56 -39 -111 -98 -263 -151 -430 -152 -200 -1 -349 61 -490 203 -136 137 -193
276 -193 466 -1 143 42 279 119 382 34 45 30 54 -5 13 -16 -19 -32 -32 -35
-29 -9 8 51 72 62 65 5 -3 31 18 58 47 27 28 36 40 19 27 -16 -14 -37 -33 -46
-42 -9 -10 -20 -18 -25 -18 -5 1 16 23 46 50 37 34 57 45 62 37 7 -11 12 -2 9
16 -1 5 3 6 9 2 5 -3 23 3 40 15 125 89 361 125 532 81z m-788 -346 c-4 -8
-10 -15 -15 -15 -4 0 -6 -7 -3 -15 4 -8 -1 -17 -9 -21 -9 -3 -13 -12 -10 -20
3 -8 1 -14 -5 -14 -6 0 -8 -9 -5 -19 3 -13 -2 -23 -16 -30 -21 -12 -31 2 -11
14 6 4 8 10 5 15 -3 5 0 14 7 22 7 7 13 18 14 23 2 27 27 75 40 75 8 0 11 -6
8 -15z m-78 -217 c-9 -5 -16 -14 -16 -20 0 -6 7 -5 17 3 15 12 16 12 8 -1 -4
-8 -15 -24 -24 -35 -15 -18 -15 -19 2 -6 13 11 17 11 17 1 0 -8 -8 -23 -17
-34 -17 -20 -17 -20 0 -7 21 17 24 -3 3 -25 -25 -25 -29 -16 -21 58 4 49 12
76 23 84 12 9 18 9 21 2 2 -6 -4 -15 -13 -20z m-10 -176 c-15 -15 -16 -15 -16
4 0 28 24 52 28 28 2 -9 -3 -24 -12 -32z m24 -11 c0 -6 -4 -13 -10 -16 -5 -3
-10 -12 -10 -18 0 -8 3 -8 9 2 17 26 22 -8 5 -36 -12 -20 -12 -23 -1 -10 11
13 17 15 22 7 4 -7 -2 -21 -13 -32 l-20 -20 -11 51 c-8 40 -8 55 2 66 14 17
27 19 27 6z m21 -139 c-15 -29 -14 -40 2 -18 12 17 14 17 20 3 3 -9 2 -19 -3
-22 -6 -4 -10 -12 -10 -18 0 -7 4 -6 10 3 9 13 11 13 20 0 6 -8 8 -28 6 -45
-3 -16 -2 -24 1 -17 10 24 25 12 19 -15 -5 -20 -4 -24 3 -13 15 22 24 5 11
-22 -10 -20 -10 -21 3 -6 18 22 30 12 16 -13 -6 -13 -6 -19 1 -19 5 0 10 5 10
10 0 6 5 10 11 10 7 0 9 -10 5 -27 -5 -21 -4 -24 3 -13 9 13 13 12 32 -7 20
-19 21 -24 8 -40 -13 -16 -12 -17 3 -5 23 19 43 6 26 -16 -12 -15 -11 -16 5
-3 27 21 48 -2 24 -26 -16 -17 -19 -15 -54 19 -33 33 -35 39 -22 55 13 17 13
17 -5 3 -17 -13 -22 -11 -58 30 -21 25 -57 82 -79 126 -36 72 -39 84 -28 102
17 27 35 12 20 -16z m1088 -315 c-32 -31 -124 -86 -128 -76 -4 13 19 30 31 23
4 -3 8 -1 8 4 0 5 12 15 28 23 15 8 36 22 46 31 22 20 35 16 15 -5z m-819 -6
c0 -15 -28 -33 -40 -26 -8 5 -8 11 1 21 13 15 39 19 39 5z m30 -19 c0 -4 -6
-14 -12 -22 -11 -12 -10 -12 4 -1 10 7 25 10 34 7 14 -5 14 -9 3 -24 -13 -15
-12 -16 3 -3 24 18 55 7 38 -14 -8 -10 -9 -15 -2 -15 6 0 14 5 17 10 11 17 38
12 31 -6 -5 -13 -4 -14 7 -5 21 17 78 -5 71 -27 -5 -16 -4 -16 8 -1 18 22 79
14 71 -10 -5 -13 -3 -14 8 -3 16 15 43 16 34 1 -4 -6 3 -5 14 3 18 11 23 11
31 -2 6 -10 10 -11 10 -2 0 6 7 12 15 12 8 0 15 -6 16 -12 0 -10 2 -10 6 0 2
6 11 12 19 12 9 0 13 -5 9 -12 -4 -7 1 -4 10 7 14 17 17 18 25 5 7 -10 10 -11
10 -2 0 6 5 12 10 12 6 0 10 -6 10 -14 0 -28 -199 -35 -315 -11 -38 8 -108 33
-155 56 -79 38 -84 42 -66 55 22 16 36 18 36 6z m570 -87 c0 -8 -3 -15 -7 -15
-5 0 -18 -3 -30 -6 -17 -5 -23 -2 -23 11 0 11 5 15 15 12 8 -4 17 -2 20 3 9
15 25 12 25 -5z"/>
<path d="M1741 1626 c19 -7 54 -23 78 -35 24 -13 45 -20 48 -17 8 7 -88 53
-127 60 l-35 6 36 -14z"/>
<path d="M1221 1594 c-40 -20 -70 -38 -68 -40 3 -3 31 9 63 25 33 16 70 34 84
40 15 6 19 10 9 10 -9 1 -49 -15 -88 -35z"/>
<path d="M1273 1530 c-24 -11 -43 -21 -43 -23 0 -4 36 -3 75 2 6 1 3 6 -5 11
-13 8 -13 10 2 10 9 0 20 5 23 10 9 14 -3 12 -52 -10z"/>
<path d="M1585 1520 c3 -5 16 -10 29 -10 12 0 27 -5 34 -12 9 -9 12 -9 12 0 0
6 -9 16 -19 22 -25 13 -64 13 -56 0z"/>
<path d="M1368 1489 c-14 -8 -18 -24 -18 -73 l0 -64 -81 -4 c-96 -4 -109 -15
-109 -94 l0 -53 53 -3 52 -3 5 -180 c3 -99 3 -188 1 -197 -2 -10 -12 -18 -23
-18 -45 0 -58 -18 -58 -79 l0 -58 38 -7 c20 -3 63 -6 95 -6 l58 0 -3 -59 c-1
-33 0 -62 3 -66 4 -3 23 -9 43 -12 55 -9 76 15 76 88 0 43 3 57 13 54 8 -4 12
-27 12 -68 l0 -62 57 -3 c49 -3 58 0 68 18 7 12 9 33 5 47 -3 14 -3 38 0 54 5
24 15 30 61 44 105 30 161 111 152 221 -4 52 -9 61 -47 96 l-42 39 25 29 c34
41 42 98 21 161 -28 84 -88 129 -171 129 -22 0 -23 4 -26 68 l-3 67 -43 3
c-60 4 -72 -9 -72 -79 0 -45 -3 -59 -15 -59 -11 0 -15 16 -17 68 l-3 67 -45 2
c-25 2 -53 -2 -62 -8z m94 -71 l-4 -68 41 0 41 0 0 71 0 70 38 -3 37 -3 3 -66
3 -66 52 -6 c93 -12 142 -70 143 -174 0 -38 -3 -60 -10 -56 -5 4 -7 -1 -3 -11
8 -20 -27 -58 -47 -50 -8 3 -17 1 -21 -5 -3 -6 -2 -11 3 -11 5 0 30 -14 55
-31 37 -24 49 -40 58 -72 14 -51 7 -98 -21 -137 -12 -16 -19 -34 -16 -39 3 -5
-2 -15 -11 -22 -12 -10 -14 -10 -9 -1 9 15 1 15 -27 0 -12 -6 -42 -16 -67 -23
-51 -13 -57 -26 -59 -119 -1 -55 -2 -58 -23 -52 -13 3 -32 6 -43 6 -18 0 -20
6 -17 70 l4 70 -40 0 -40 0 2 -70 c2 -66 0 -70 -20 -70 -12 0 -29 -3 -38 -6
-14 -5 -16 4 -16 66 l0 72 -102 -3 -103 -3 -1 29 c-1 29 -1 29 3 3 2 -16 8
-28 12 -28 5 0 5 21 0 46 -10 55 -6 64 30 64 52 0 61 16 64 115 1 50 1 135 0
191 -4 123 -12 139 -77 139 l-46 0 0 47 0 47 53 5 c28 3 70 7 92 9 l40 2 3 73
3 73 42 -3 42 -3 -3 -67z m65 -30 c-2 -18 -4 -4 -4 32 0 36 2 50 4 33 2 -18 2
-48 0 -65z m-160 0 c-2 -18 -4 -6 -4 27 0 33 2 48 4 33 2 -15 2 -42 0 -60z
m-79 -186 c9 -12 11 -65 10 -201 l-2 -186 -6 181 c-5 183 -12 214 -46 214 -7
0 -16 5 -19 10 -11 17 48 0 63 -18z m70 -539 c-15 -2 -42 -2 -60 0 -18 2 -6 4
27 4 33 0 48 -2 33 -4z m187 -91 c-10 -56 -18 -28 -9 35 6 43 9 50 12 29 2
-16 1 -45 -3 -64z m-148 -14 c-2 -18 -4 -4 -4 32 0 36 2 50 4 33 2 -18 2 -48
0 -65z"/>
<path d="M1478 1244 c-15 -5 -18 -17 -18 -69 0 -35 3 -70 6 -79 12 -31 137
-12 167 25 25 31 22 85 -6 103 -24 16 -120 28 -149 20z m140 -30 c12 -8 22
-20 22 -26 0 -7 -6 -4 -13 6 -8 10 -31 22 -53 26 -35 7 -36 8 -9 9 17 0 41 -6
53 -15z m-8 -24 c42 -42 14 -82 -65 -94 -54 -7 -64 2 -72 62 l-6 52 62 0 c48
0 65 -4 81 -20z"/>
<path d="M1488 983 c-16 -4 -18 -17 -18 -93 0 -50 5 -92 10 -95 18 -11 154 15
173 33 51 51 35 133 -30 151 -38 11 -103 13 -135 4z m159 -28 c18 -12 20 -22
16 -57 -8 -64 -28 -80 -113 -86 l-71 -5 3 74 3 74 64 -2 c37 -1 73 -9 87 -18
13 -8 24 -11 24 -6 0 5 -17 16 -37 24 -26 11 -31 16 -18 16 11 1 30 -6 42 -14z"/>
<path d="M998 1418 c-29 -39 -41 -58 -35 -58 8 0 69 81 64 86 -2 2 -15 -10
-29 -28z"/>
<path d="M1963 1347 c-38 -14 -58 -33 -24 -22 18 5 22 4 16 -6 -6 -9 -3 -11 9
-6 10 4 21 7 24 7 4 0 0 5 -8 10 -13 8 -13 10 2 10 9 0 20 5 23 10 8 12 -1 12
-42 -3z"/>
<path d="M2091 1354 c-1 -5 9 -32 22 -60 13 -27 28 -60 34 -74 7 -14 12 -18
12 -10 1 17 -67 161 -68 144z"/>
<path d="M1823 1291 c12 -22 24 -37 26 -35 7 6 -30 74 -40 74 -4 0 2 -18 14
-39z"/>
<path d="M2010 1104 c-64 -20 -73 -24 -68 -29 2 -3 36 6 74 19 74 26 69 33 -6
10z"/>
<path d="M1003 1040 c-44 -20 -59 -37 -23 -25 12 4 20 2 20 -6 0 -9 4 -8 15 1
8 7 12 16 9 21 -3 5 2 9 10 9 9 0 16 5 16 10 0 6 -1 10 -2 9 -2 0 -22 -9 -45
-19z"/>
<path d="M874 950 c3 -69 20 -140 32 -128 2 3 -1 18 -7 34 -7 16 -15 61 -20
99 l-7 70 2 -75z"/>
<path d="M1157 799 c-18 -10 -24 -59 -7 -59 5 0 7 7 3 16 -4 10 1 22 12 30 23
17 17 26 -8 13z"/>
<path d="M2037 645 c-32 -36 -54 -65 -49 -65 10 0 48 41 87 93 41 55 27 45
-38 -28z"/>
<path d="M1811 603 c-29 -13 -51 -26 -49 -28 4 -5 96 31 107 41 15 14 -12 8
-58 -13z"/>
<path d="M1163 584 c-18 -8 -33 -16 -33 -18 0 -6 77 1 89 8 13 9 5 26 -12 25
-7 0 -27 -7 -44 -15z"/>
<path d="M1230 440 c22 -14 141 -53 146 -47 5 4 -136 57 -153 57 -4 0 -1 -5 7
-10z"/>
<path d="M1755 420 c-44 -20 -36 -26 14 -9 17 6 31 15 31 20 0 5 -1 9 -2 8 -2
0 -21 -9 -43 -19z"/>
</g>
</svg>
