<?xml version="1.0" encoding="UTF-8"?>
<svg version="1.1" xmlns="http://www.w3.org/2000/svg" width="200" height="200">
<path d="M0 0 C66 0 132 0 200 0 C200 66 200 132 200 200 C134 200 68 200 0 200 C0 134 0 68 0 0 Z " fill="#FCD667" transform="translate(0,0)"/>
<path d="M0 0 C3.99104912 0.30178065 6.19416343 1.73413808 9 4.625 C10.46745575 7.55991151 9.9203603 10.30317814 9.7421875 13.53125 C9.82726562 14.2221875 9.91234375 14.913125 10 15.625 C10.99 16.285 11.98 16.945 13 17.625 C13.90878906 17.02751953 13.90878906 17.02751953 14.8359375 16.41796875 C25.45299904 9.70471907 35.87894429 6.59449271 48.51171875 9.12890625 C53.39831286 10.62132155 57.69995396 12.99110106 62.0546875 15.63671875 C64.08211256 16.85146661 64.08211256 16.85146661 67 16.625 C67.87426573 13.89291958 67.96279031 12.11336679 67.75 9.1875 C68 5.625 68 5.625 70.0625 2.6875 C73.74684866 0.1006169 75.57941605 -0.00651199 80 0.625 C84.6 2.825 84.6 2.825 86 5.625 C86.68181818 12.55681818 86.68181818 12.55681818 84.125 16.5625 C79.85700901 19.37937405 76.02524947 19.51766457 71 19.625 C70.505 21.11 70.505 21.11 70 22.625 C70.73992187 23.2953125 71.47984375 23.965625 72.2421875 24.65625 C75.34165551 27.76663932 77.20756447 31.20577874 79.125 35.125 C79.47409424 35.82407471 79.82318848 36.52314941 80.18286133 37.2434082 C82.80021991 42.69917977 84.15681714 48.03583034 85.29296875 53.98046875 C86.26279142 57.60792701 88.11136417 59.31409134 91 61.625 C96.31214142 68.71208127 94.49043233 79.27753724 93.3125 87.625 C90.85384457 100.31097908 86.79596464 113.27225044 77.125 122.3125 C72.96275824 124.06064154 69.43468252 124.70503338 65 123.625 C61.07115841 120.11412028 59.32508476 116.68441455 58 111.625 C53.77521868 113.83442627 51.30076839 116.38484247 48.375 120.125 C46.92549785 121.96532354 45.46810934 123.79948577 44 125.625 C43.24589844 126.56859375 43.24589844 126.56859375 42.4765625 127.53125 C41 128.625 41 128.625 39.02734375 128.54296875 C36.50964473 127.40297016 35.31797376 126.06596125 33.5625 123.9375 C32.95921875 123.21949219 32.3559375 122.50148438 31.734375 121.76171875 C30.67555045 120.45726599 29.62206407 119.14842695 28.578125 117.83203125 C26.29379633 114.97662042 24.4778007 112.91307433 21 111.625 C20.938125 112.49125 20.87625 113.3575 20.8125 114.25 C19.75320336 118.65015529 18.41043374 120.64087048 15 123.625 C10.49363237 124.72047058 6.99693187 124.07459673 2.8125 122.1875 C-8.48389543 111.89522861 -13.42504552 94.12680607 -14.3203125 79.2421875 C-14.37004045 77.72427024 -14.4092076 76.20596805 -14.4375 74.6875 C-14.45981689 73.97746826 -14.48213379 73.26743652 -14.50512695 72.53588867 C-14.48269203 67.41163106 -13.18198702 64.57802908 -10 60.625 C-9.44183594 60.13128906 -8.88367187 59.63757813 -8.30859375 59.12890625 C-6.3036213 56.82468418 -6.38018774 54.55733162 -6.0625 51.5625 C-4.47733868 40.11129462 0.01308027 32.71404493 7 23.625 C7.66 22.635 8.32 21.645 9 20.625 C8.19175781 20.52703125 7.38351563 20.4290625 6.55078125 20.328125 C-4.19409428 18.8246201 -4.19409428 18.8246201 -8 14.625 C-9.45147903 11.72204195 -9.37239025 9.85238221 -9 6.625 C-6.59221978 2.56187088 -4.78704154 0.25385826 0 0 Z " fill="#090805" transform="translate(61,35.375)"/>
<path d="M0 0 C9.26928008 3.18316269 16.28315775 9.70224307 20.6015625 18.4921875 C21.66954454 21.60224509 21.51532965 23.52004853 20.3125 26.5625 C17.36806569 30.09039365 14.73224381 31.40381496 10.375 32.75 C9.35535156 33.07355469 8.33570313 33.39710937 7.28515625 33.73046875 C-6.93262985 37.70995422 -25.7884805 37.59016486 -39.03125 30.66015625 C-40.865555 29.44449657 -42.26832058 28.24698596 -43.6875 26.5625 C-44.78512009 20.58656838 -42.6167738 16.79691339 -39.453125 11.92578125 C-34.65848897 5.50818214 -29.02641826 2.47714167 -21.6875 -0.4375 C-15.51247524 -3.52501238 -6.39507443 -1.67092206 0 0 Z " fill="#040403" transform="translate(111.6875,64.4375)"/>
<path d="M0 0 C9.98175264 7.23803312 17.68305251 18.43452642 20.56640625 30.4921875 C20.9706514 34.89587936 21.0520458 38.69790906 18.56640625 42.4921875 C4.2549106 52.47830211 -16.72064414 54.68848708 -33.66113281 52.15966797 C-38.02941454 51.26676718 -42.22509473 49.94839822 -46.43359375 48.4921875 C-47.42488281 48.16863281 -48.41617188 47.84507813 -49.4375 47.51171875 C-53.11829455 46.19906276 -55.97778477 44.85032313 -59.05859375 42.4296875 C-61.68027711 36.82881851 -61.24742939 31.36874019 -59.5859375 25.49609375 C-54.59713313 12.49137998 -46.61575095 2.8171319 -34.22265625 -3.6640625 C-22.99998828 -8.16981767 -10.07954099 -6.24510887 0 0 Z M-37.43359375 12.4921875 C-38.48160156 13.12833984 -38.48160156 13.12833984 -39.55078125 13.77734375 C-45.49322051 17.80250544 -49.24584 23.11668 -52.43359375 29.4921875 C-53.01774077 32.86525368 -53.01774077 32.86525368 -52.43359375 36.4921875 C-46.25446484 43.46351242 -37.13196198 45.07599765 -28.14672852 45.63427734 C-14.84255547 46.15383767 -0.89882719 46.25895854 10.56640625 38.4921875 C12.37432074 36.10902749 12.56640625 34.80059421 12.56640625 31.8046875 C10.17565147 23.88531229 4.53933422 16.90456487 -2.43359375 12.4921875 C-13.7994302 7.39715737 -26.4845767 5.81037291 -37.43359375 12.4921875 Z " fill="#F7D76B" transform="translate(120.43359375,54.5078125)"/>
<path d="M0 0 C1.37981502 2.75963004 0.7323735 3.96422658 -0.1875 6.875 C-1.56550229 10.16610514 -2.3961229 11.65452612 -5.51953125 13.44140625 C-8.6555177 14.48947512 -11.77534106 15.27185121 -15 16 C-15.96550781 16.29519531 -16.93101563 16.59039062 -17.92578125 16.89453125 C-34.46898052 21.79704903 -54.32522897 19.01285437 -70 12 C-72.33465285 7.98731541 -73 5.64584262 -73 1 C-72.33355469 1.19335938 -71.66710937 1.38671875 -70.98046875 1.5859375 C-70.05878906 1.84632812 -69.13710937 2.10671875 -68.1875 2.375 C-66.84751953 2.75785156 -66.84751953 2.75785156 -65.48046875 3.1484375 C-56.01609154 5.46407637 -47.06136129 6.35710655 -37.3125 6.3125 C-36.08313721 6.30903564 -34.85377441 6.30557129 -33.5871582 6.30200195 C-21.6540934 6.15965141 -10.94995373 4.9545418 0 0 Z " fill="#F7D86B" transform="translate(137,113)"/>
<path d="M0 0 C2.52693781 0.34854315 3.80992319 0.82888777 5.72265625 2.55078125 C7.54157377 6.03843044 7.48931524 9.34460401 7.4375 13.1875 C7.42920166 13.98051514 7.42090332 14.77353027 7.41235352 15.59057617 C7.02291419 29.57851613 3.59689072 43.98330203 -5.609375 54.91015625 C-7.96789045 57.0923909 -9.67499794 57.96467369 -12.875 58.3125 C-13.57625 58.209375 -14.2775 58.10625 -15 58 C-17.18971955 54.57856321 -18.79702462 51.90416306 -19.6875 47.9375 C-18.78328349 44.07402946 -17.05310486 43.17969082 -14.0078125 40.8125 C-6.16633031 33.73380791 -1.60750046 22.28488159 0 12 C0.0659735 9.89676466 0.08562245 7.79164276 0.0625 5.6875 C0.05347656 4.61886719 0.04445312 3.55023438 0.03515625 2.44921875 C0.02355469 1.64097656 0.01195312 0.83273438 0 0 Z " fill="#F7F7F7" transform="translate(143,97)"/>
<path d="M0 0 C-0.03480469 0.65484375 -0.06960937 1.3096875 -0.10546875 1.984375 C-0.56635991 17.52299142 4.73543331 29.84357914 15.16796875 41.22265625 C17.07733798 43.1824528 17.07733798 43.1824528 20 45 C19.54257146 49.66577113 19.0940533 53.35343718 16 57 C13.6875 57.625 13.6875 57.625 11 57 C1.44289659 51.30640648 -2.30039922 38.23079476 -5 28 C-5.93484103 22.75003185 -6.21266433 17.62816633 -6.25 12.3125 C-6.270625 11.56677734 -6.29125 10.82105469 -6.3125 10.05273438 C-6.3358518 6.78056288 -6.21160431 4.40142583 -4.671875 1.48046875 C-3 0 -3 0 0 0 Z " fill="#F6F6F6" transform="translate(58,98)"/>
<path d="M0 0 C1.44052734 0.32484375 1.44052734 0.32484375 2.91015625 0.65625 C18.03274541 3.82236018 34.99605212 5.51610691 49.890625 0.55859375 C52 0 52 0 55 1 C51.22823681 5.23518802 47.46935567 8.44219446 42.5625 11.3125 C37.33943567 14.45927053 34.14480292 18.09923144 30.65625 23.05859375 C30.1096875 23.69925781 29.563125 24.33992188 29 25 C28.01 25 27.02 25 26 25 C24.125 22.83984375 24.125 22.83984375 22 19.9375 C18.00383771 14.84614152 14.08460723 11.85797793 8.53125 8.63671875 C4.8715733 6.27035372 2.61267163 3.46002459 0 0 Z " fill="#F4D56A" transform="translate(73,132)"/>
<path d="M0 0 C2.5625 1.6875 2.5625 1.6875 4 4 C4 7.13954984 3.46673327 8.47941289 1.375 10.8125 C-1.97040771 12.48520386 -4.30986503 12.46126687 -8 12 C-10.5 10.375 -10.5 10.375 -12 8 C-11.9375 4.875 -11.9375 4.875 -11 2 C-7.31826358 -0.45449095 -4.27666592 -0.69560229 0 0 Z " fill="#F5F5F5" transform="translate(115,77)"/>
<path d="M0 0 C2.5 1.125 2.5 1.125 4 3 C4.5625 6 4.5625 6 4 9 C1.33503748 11.35143752 -0.55628613 11.9366123 -4.0625 12.4375 C-7 12 -7 12 -9.375 10.3125 C-11 8 -11 8 -11.4375 5.4375 C-11 3 -11 3 -10 1.1875 C-6.80804446 -0.7077236 -3.5620268 -0.51602803 0 0 Z " fill="#F7F7F7" transform="translate(92,77)"/>
</svg>
